<?xml version="1.0" encoding="UTF-8"?>
<svg id="Layer_1" xmlns="http://www.w3.org/2000/svg" version="1.1" viewBox="0 0 128 128">
  <!-- Generator: Adobe Illustrator 30.0.0, SVG Export Plug-In . SVG Version: 2.1.1 Build 123)  -->
  <defs>
    <style>
      .st0 {
        fill: #0a9;
      }

      .st1 {
        fill: none;
        stroke: #d0d0d0;
        stroke-miterlimit: 10;
        stroke-width: 8px;
      }
    </style>
  </defs>
  <path class="st0" d="M48.4,94c-2.8-4.2-4.3-9.2-5.4-14.8-.5-2.3-2.5-4-4.8-3.5s-3.5,3-3.2,5.3c.8,6.9,1.2,9.3,6.5,17.9,3.4,5.5,8.5,9.6,15.3,12.6,2.1.9,4.6,0,5.6-2.3s0-4.7-2.2-5.6c-5.2-2.2-9-5.5-11.7-9.6h0Z"/>
  <path class="st1" d="M61.8,6.9c-6.7,11.8-26.3,46.3-27.8,49.2-22.6,36.4,7.7,66.6,30.3,66.6s54.4-25.6,33.3-62.2L66.3,6.9c-1.1-1.8-3.5-1.8-4.5,0Z"/>
  <path class="st1" d="M88.8,83.8"/>
</svg>