<?xml version="1.0" encoding="utf-8"?>
<!-- Generator: Adobe Illustrator 28.2.0, SVG Export Plug-In . SVG Version: 6.00 Build 0)  -->
<svg version="1.1" id="Calque_1" xmlns="http://www.w3.org/2000/svg" xmlns:xlink="http://www.w3.org/1999/xlink" x="0px" y="0px"
	 viewBox="0 0 64 64" style="enable-background:new 0 0 64 64;" xml:space="preserve">
<style type="text/css">
	.st0{fill:#FFFFFF;}
	.st1{fill:#00AA99;}
	.st2{fill:none;stroke:#D0D0D0;stroke-width:5;stroke-miterlimit:10;}
</style>
<g>
	<path class="st0" d="M61.5,2.7C41.9,22.3,22.3,41.8,2.8,61.4"/>
	<g>
		<path class="st1" d="M59.7,0.9C44.5,16.2,29.2,31.4,14,46.6c-4.3,4.3-8.7,8.7-13,13c-2.3,2.3,1.3,5.8,3.5,3.5
			C19.8,48,35,32.7,50.2,17.5c4.3-4.3,8.7-8.7,13-13C65.5,2.2,62-1.3,59.7,0.9L59.7,0.9z"/>
	</g>
</g>
<path class="st2" d="M43.6,8.7c0.5,0.4,1,0.9,1.5,1.3"/>
<path class="st2" d="M9.2,44.3C0.3,34.6,0.6,19.5,10,10c9.2-9.2,23.8-9.7,33.6-1.3"/>
<path class="st2" d="M10,45.1c-0.3-0.3-0.5-0.5-0.7-0.8"/>
<path class="st2" d="M58.9,18.7C58.9,31.8,59,46.4,59,59c-13.9,0-28.9,0.4-43.4,0.4"/>
</svg>
