<?xml version="1.0" encoding="utf-8"?>
<!-- Generator: Adobe Illustrator 28.2.0, SVG Export Plug-In . SVG Version: 6.00 Build 0)  -->
<svg version="1.1" id="Calque_1" xmlns="http://www.w3.org/2000/svg" xmlns:xlink="http://www.w3.org/1999/xlink" x="0px" y="0px"
	 viewBox="0 0 64 64" style="enable-background:new 0 0 64 64;" xml:space="preserve">
<style type="text/css">
	.st0{fill:#D0D0D0;}
	.st1{fill-rule:evenodd;clip-rule:evenodd;fill:#00AA99;}
</style>
<g>
	<path class="st0" d="M36,4.4c15.5,0,28,12.4,28,27.6c0,15.2-12.6,27.6-28,27.6c-0.1,0-0.1,0-0.2,0v-7.8c0.1,0,0.1,0,0.2,0
		c11.1,0,20.1-8.9,20.1-19.8s-9-19.8-20.1-19.8c-11.1,0-20.1,8.9-20.1,19.8c0,0.1,0,0.2,0,0.3H7.9c0-0.1,0-0.2,0-0.3
		C7.9,16.8,20.5,4.4,36,4.4z"/>
</g>
<g>
	<path class="st1" d="M15.7,32l6.4,0l-10,14.8l0,0L2.2,32l6.4,0"/>
</g>
</svg>
