<?xml version="1.0" encoding="utf-8"?>
<!-- Generator: Adobe Illustrator 28.2.0, SVG Export Plug-In . SVG Version: 6.00 Build 0)  -->
<svg version="1.1" xmlns="http://www.w3.org/2000/svg" xmlns:xlink="http://www.w3.org/1999/xlink" x="0px" y="0px"
	 viewBox="0 0 64 64" style="enable-background:new 0 0 64 64;" xml:space="preserve">
<style type="text/css">
	.st0{display:none;fill:none;}
	.st1{display:none;fill:none;stroke:#FFFFFF;stroke-width:4;stroke-miterlimit:10;}
	.st2{fill:none;stroke:#D0D0D0;stroke-width:5;stroke-miterlimit:10;}
	.st3{fill:none;stroke:#FFFFFF;stroke-width:3;stroke-miterlimit:10;}
	.st4{fill:none;stroke:#00AA99;stroke-width:3;stroke-miterlimit:10;}
</style>
<g id="Calque_1">
</g>
<g id="Calque_2">
	<rect x="39.8" y="44.5" class="st0" width="20.4" height="20.4"/>
	<rect x="2.2" y="2.1" class="st1" width="26.1" height="26.1"/>
	<rect x="10.4" y="10.3" class="st2" width="28.8" height="28.9"/>
	<path class="st3" d="M43.6,30.2"/>
	<path class="st2" d="M39.2,18.7L39.2,18.7c1.8,0,5.1,0.2,8.6,1.9c0.8,0.4,3.4,1.7,5.8,4.1c5.3,5.3,5.9,12.3,6,14.5v0
		c0,11.3-9.2,20.5-20.5,20.5h0c-5.6,0-10.8-2.3-14.5-6c-2.3-2.3-3.5-4.7-3.9-5.5c-1.8-3.7-2.1-7.1-2.1-9c0,0,0,0,0,0"/>
	<line class="st4" x1="1.5" y1="1.5" x2="11.7" y2="1.5"/>
	<line class="st4" x1="1.5" y1="11.7" x2="1.5" y2="1.5"/>
	<line class="st4" x1="62.5" y1="62.5" x2="52.3" y2="62.5"/>
	<line class="st4" x1="62.5" y1="52.3" x2="62.5" y2="62.5"/>
	<line class="st4" x1="62.5" y1="1.5" x2="62.5" y2="11.7"/>
	<line class="st4" x1="52.3" y1="1.5" x2="62.5" y2="1.5"/>
	<line class="st4" x1="1.5" y1="62.5" x2="1.5" y2="52.3"/>
	<line class="st4" x1="11.7" y1="62.5" x2="1.5" y2="62.5"/>
</g>
</svg>
