<?xml version="1.0" encoding="UTF-8"?>
<svg xmlns="http://www.w3.org/2000/svg" xmlns:xlink="http://www.w3.org/1999/xlink" viewBox="0 0 120 120">
  <defs>
    <style>
      .cls-1 {
        fill: url(#Dégradé_sans_nom_62-2);
      }

      .cls-2 {
        fill: url(#Dégradé_sans_nom_16-3);
      }

      .cls-2, .cls-3, .cls-4 {
        opacity: .5;
      }

      .cls-5 {
        fill: none;
        stroke: #fff;
        stroke-miterlimit: 10;
      }

      .cls-3 {
        fill: url(#Dégradé_sans_nom_16);
      }

      .cls-6 {
        fill: url(#Dégradé_sans_nom_62-3);
      }

      .cls-7 {
        fill: url(#Nouvelle_nuance_de_dégradé_1-3);
      }

      .cls-7, .cls-8 {
        opacity: .2;
      }

      .cls-9, .cls-10 {
        fill: #d0d0d0;
      }

      .cls-4 {
        fill: url(#Dégradé_sans_nom_16-2);
      }

      .cls-11 {
        fill: url(#Dégradé_sans_nom_62);
      }

      .cls-8 {
        fill: url(#Nouvelle_nuance_de_dégradé_1-2);
      }

      .cls-12 {
        fill: url(#Nouvelle_nuance_de_dégradé_1);
        opacity: .05;
      }

      .cls-10 {
        fill-rule: evenodd;
      }
    </style>
    <linearGradient id="Nouvelle_nuance_de_dégradé_1" data-name="Nouvelle nuance de dégradé 1" x1="105" y1="60.06" x2="195" y2="60.06" gradientUnits="userSpaceOnUse">
      <stop offset="0" stop-color="#fff"/>
      <stop offset="1" stop-color="#000"/>
    </linearGradient>
    <linearGradient id="Nouvelle_nuance_de_dégradé_1-2" data-name="Nouvelle nuance de dégradé 1" x1="-75.52" x2="14.48" xlink:href="#Nouvelle_nuance_de_dégradé_1"/>
    <linearGradient id="Nouvelle_nuance_de_dégradé_1-3" data-name="Nouvelle nuance de dégradé 1" x1="15" y1="60.06" x2="105" y2="60.06" xlink:href="#Nouvelle_nuance_de_dégradé_1"/>
    <linearGradient id="Dégradé_sans_nom_16" data-name="Dégradé sans nom 16" x1="61.94" y1="41.59" x2="71.88" y2="41.59" gradientUnits="userSpaceOnUse">
      <stop offset="0" stop-color="#fff"/>
      <stop offset="1" stop-color="#000"/>
    </linearGradient>
    <linearGradient id="Dégradé_sans_nom_16-2" data-name="Dégradé sans nom 16" x1="38.78" y1="69.55" x2="55.83" y2="69.55" xlink:href="#Dégradé_sans_nom_16"/>
    <linearGradient id="Dégradé_sans_nom_16-3" data-name="Dégradé sans nom 16" x1="43.49" y1="64.15" x2="77.87" y2="64.15" xlink:href="#Dégradé_sans_nom_16"/>
    <linearGradient id="Dégradé_sans_nom_62" data-name="Dégradé sans nom 62" x1="61.94" y1="41.59" x2="71.88" y2="41.59" gradientUnits="userSpaceOnUse">
      <stop offset="0" stop-color="#fff"/>
      <stop offset="1" stop-color="gray"/>
    </linearGradient>
    <linearGradient id="Dégradé_sans_nom_62-2" data-name="Dégradé sans nom 62" x1="38.78" y1="69.55" x2="55.83" y2="69.55" xlink:href="#Dégradé_sans_nom_62"/>
    <linearGradient id="Dégradé_sans_nom_62-3" data-name="Dégradé sans nom 62" x1="43.49" y1="64.15" x2="77.87" y2="64.15" xlink:href="#Dégradé_sans_nom_62"/>
  </defs>
  <g id="Layer_1" data-name="Layer 1">
    <rect class="cls-12" x="105" y="28.12" width="15.07" height="63.88"/>
    <rect class="cls-8" x=".06" y="28.12" width="14.41" height="63.88"/>
    <rect class="cls-7" x="15" y="28.12" width="90" height="63.88"/>
    <line class="cls-5" x1="15" y1="28.12" x2="15" y2="90.26"/>
    <line class="cls-5" x1="105" y1="28.12" x2="105" y2="90.26"/>
    <g>
      <path class="cls-10" d="M.57,110.26v-2.36h5.34v-14.78H.5v-2.36h119.14v2.36h-7.3v14.78h7.37v2.36H.57ZM97.49,107.9h11.47v-14.78h-11.47v14.78ZM82.64,107.9h11.47v-14.78h-11.47v14.78ZM67.73,107.9h11.47v-14.72h-11.47v14.72ZM53.39,107.9h11.47v-14.78h-11.47v14.78ZM38.49,107.9h11.47v-14.78h-11.47v14.78ZM23.61,107.9h11.47v-14.78h-11.47v14.78ZM8.74,107.9h11.47v-14.72h-11.47v14.72Z"/>
      <path class="cls-9" d="M119.14,91.26v1.36h-7.3v15.78h7.37v1.36H1.07v-1.36h5.34v-15.78H1v-1.36h118.14M96.99,108.4h12.47v-15.78h-12.47v15.78M82.14,108.4h12.47v-15.78h-12.47v15.78M52.89,108.4h12.47v-15.78h-12.47v15.78M37.99,108.4h12.47v-15.78h-12.47v15.78M23.11,108.4h12.47v-15.78h-12.47v15.78M67.23,108.4h12.47v-15.72h-12.47v15.72M8.24,108.4h12.47v-15.72h-12.47v15.72M120.14,90.26H0v3.36h5.41v13.78H.07v3.36h120.14v-3.36h-7.37v-13.78h7.3v-3.36h0ZM97.99,107.4v-13.78h10.47v13.78h-10.47ZM83.14,107.4v-13.78h10.47v13.78h-10.47ZM53.89,107.4v-13.78h10.47v13.78h-10.47ZM38.99,107.4v-13.78h10.47v13.78h-10.47ZM24.11,107.4v-13.78h10.47v13.78h-10.47ZM68.23,107.4v-13.72h10.47v13.72h-10.47ZM9.24,107.4v-13.72h10.47v13.72h-10.47Z"/>
    </g>
    <g>
      <path class="cls-10" d="M.36,27.62v-2.36h5.34v-14.78H.29v-2.36h119.14v2.36h-7.3v14.78h7.37v2.36H.36ZM97.28,25.26h11.47v-14.78h-11.47v14.78ZM82.43,25.26h11.47v-14.78h-11.47v14.78ZM67.52,25.26h11.47v-14.72h-11.47v14.72ZM53.18,25.26h11.47v-14.78h-11.47v14.78ZM38.27,25.26h11.47v-14.78h-11.47v14.78ZM23.4,25.26h11.47v-14.78h-11.47v14.78ZM8.53,25.26h11.47v-14.72h-11.47v14.72Z"/>
      <path class="cls-9" d="M118.93,8.63v1.36h-7.3v15.78h7.37v1.36H.86v-1.36h5.34v-15.78H.79v-1.36h118.14M96.78,25.76h12.47v-15.78h-12.47v15.78M81.93,25.76h12.47v-15.78h-12.47v15.78M52.68,25.76h12.47v-15.78h-12.47v15.78M37.78,25.76h12.47v-15.78h-12.47v15.78M22.9,25.76h12.47v-15.78h-12.47v15.78M67.02,25.76h12.47v-15.72h-12.47v15.72M8.03,25.76h12.47v-15.72h-12.47v15.72M119.93,7.63H-.21v3.36h5.41v13.78H-.14v3.36h120.14v-3.36h-7.37v-13.78h7.3v-3.36h0ZM97.78,24.76v-13.78h10.47v13.78h-10.47ZM82.93,24.76v-13.78h10.47v13.78h-10.47ZM53.68,24.76v-13.78h10.47v13.78h-10.47ZM38.78,24.76v-13.78h10.47v13.78h-10.47ZM23.9,24.76v-13.78h10.47v13.78h-10.47ZM68.02,24.76v-13.72h10.47v13.72h-10.47ZM9.03,24.76v-13.72h10.47v13.72h-10.47Z"/>
    </g>
  </g>
  <g id="Calque_2" data-name="Calque 2">
    <path class="cls-9" d="M67.26,46.55c2.74-.19,4.81-2.57,4.61-5.31-.19-2.73-2.57-4.8-5.3-4.61h-.03c-2.73.2-4.78,2.57-4.59,5.31.19,2.74,2.57,4.81,5.31,4.61Z"/>
    <path class="cls-9" d="M55.64,68.42l-3.78-2.54c-.19-.13-.45-.1-.6.07l-.75.88c-.44.39-1.08.44-1.91.5h-.19l-9.62.55.08,5.42,9.91-.58h.18c1.27-.09,2.34-.16,3.48-.71.54-.26,1.04-.59,1.49-.99.44-.39.84-.8,1.21-1.25.14-.18.3-.34.47-.49.17-.15.25-.21.25-.44,0-.16-.07-.31-.2-.4Z"/>
    <path class="cls-9" d="M77.56,54.67c-.02-.24-.23-.42-.48-.4-1.76.14-3.51.24-5.26.4-.36,0-.71.04-1.07.09-.54.07-1.01.13-1.21-.04-.51-.4-.9-1.16-1.35-2.02-1.05-2-2.4-4.58-6.39-5.91-.26-.08-.58-.21-.99-.35-.81-.29-1.79-.65-2.65-.89-2.38-.73-4.09-.79-5.62-.4-1.53.38-2.86,1.19-4.48,2.19-1.35.87-2.96,1.68-4.35,2.48,0,0,0,0,0,0-.21.12-.29.39-.16.61l2.22,3.9c.12.22.4.29.61.17l3.52-2.02c.28-.16.6-.37.89-.51.38-.22.72-.45,1.06-.66.81-.52,1.53-.98,2.29-1.09.66-.02,1.31.1,1.93.33l.36.1-3.64,7.74c-.52.99-.75,2.1-.66,3.21.13,1.13.64,2.18,1.45,2.98,1.15,1.18,2.63,1.99,4.15,2.83,1.25.63,2.44,1.39,3.54,2.25.18.27.28.58.3.9v.1c.06.36.05.72-.03,1.07-.1.41-.21.82-.35,1.21-.97,3.29-2,6.58-2.99,9.87-.07.24.07.49.3.56.05.01.11.01.16,0l4.72-.32c.19-.01.35-.14.4-.33.84-2.68,1.62-5.5,2.55-8.15.13-.38.24-.74.35-1.15.11-.39.2-.79.26-1.19.66-4.54-1.37-6.24-3.8-8.27-.83-.67-1.62-1.39-2.37-2.15l2.81-6.29c.68,1.37,1.68,2.55,2.92,3.44l.05.03c2.35,1.27,3.91,1.15,6.07,1l4.86-.36c.24-.02.41-.23.4-.46l-.32-4.52Z"/>
    <path class="cls-3" d="M67.26,46.55c2.74-.19,4.81-2.57,4.61-5.31-.19-2.73-2.57-4.8-5.3-4.61h-.03c-2.73.2-4.78,2.57-4.59,5.31.19,2.74,2.57,4.81,5.31,4.61Z"/>
    <path class="cls-4" d="M55.64,68.42l-3.78-2.54c-.19-.13-.45-.1-.6.07l-.75.88c-.44.39-1.08.44-1.91.5h-.19l-9.62.55.08,5.42,9.91-.58h.18c1.27-.09,2.34-.16,3.48-.71.54-.26,1.04-.59,1.49-.99.44-.39.84-.8,1.21-1.25.14-.18.3-.34.47-.49.17-.15.25-.21.25-.44,0-.16-.07-.31-.2-.4Z"/>
    <path class="cls-2" d="M77.56,54.67c-.02-.24-.23-.42-.48-.4-1.76.14-3.51.24-5.26.4-.36,0-.71.04-1.07.09-.54.07-1.01.13-1.21-.04-.51-.4-.9-1.16-1.35-2.02-1.05-2-2.4-4.58-6.39-5.91-.26-.08-.58-.21-.99-.35-.81-.29-1.79-.65-2.65-.89-2.38-.73-4.09-.79-5.62-.4-1.53.38-2.86,1.19-4.48,2.19-1.35.87-2.96,1.68-4.35,2.48,0,0,0,0,0,0-.21.12-.29.39-.16.61l2.22,3.9c.12.22.4.29.61.17l3.52-2.02c.28-.16.6-.37.89-.51.38-.22.72-.45,1.06-.66.81-.52,1.53-.98,2.29-1.09.66-.02,1.31.1,1.93.33l.36.1-3.64,7.74c-.52.99-.75,2.1-.66,3.21.13,1.13.64,2.18,1.45,2.98,1.15,1.18,2.63,1.99,4.15,2.83,1.25.63,2.44,1.39,3.54,2.25.18.27.28.58.3.9v.1c.06.36.05.72-.03,1.07-.1.41-.21.82-.35,1.21-.97,3.29-2,6.58-2.99,9.87-.07.24.07.49.3.56.05.01.11.01.16,0l4.72-.32c.19-.01.35-.14.4-.33.84-2.68,1.62-5.5,2.55-8.15.13-.38.24-.74.35-1.15.11-.39.2-.79.26-1.19.66-4.54-1.37-6.24-3.8-8.27-.83-.67-1.62-1.39-2.37-2.15l2.81-6.29c.68,1.37,1.68,2.55,2.92,3.44l.05.03c2.35,1.27,3.91,1.15,6.07,1l4.86-.36c.24-.02.41-.23.4-.46l-.32-4.52Z"/>
    <path class="cls-11" d="M66.91,37.62c2.07,0,3.81,1.62,3.96,3.69.15,2.19-1.5,4.09-3.69,4.24-.1,0-.19,0-.28,0-2.07,0-3.81-1.62-3.96-3.69-.15-2.17,1.5-4.08,3.62-4.24h.07c.09,0,.19-.01.28-.01M66.91,36.62c-.11,0-.23,0-.35.01h-.03c-2.73.2-4.78,2.57-4.59,5.31.18,2.62,2.37,4.63,4.96,4.63.12,0,.23,0,.35-.01,2.74-.19,4.81-2.57,4.61-5.31-.19-2.62-2.37-4.62-4.96-4.62h0Z"/>
    <path class="cls-1" d="M51.69,66.98l2.86,1.92c-.07.07-.13.15-.19.23-.34.41-.71.79-1.11,1.14-.38.34-.8.62-1.26.84-.94.46-1.88.53-3.07.61h-.21s-8.86.52-8.86.52l-.05-3.41,8.64-.5h.23c.93-.07,1.81-.13,2.51-.75l.05-.04.04-.05.43-.51M51.59,65.8c-.13,0-.25.05-.34.16l-.75.88c-.44.39-1.08.44-1.91.5h-.19l-9.62.55.08,5.42,9.91-.58h.18c1.27-.09,2.34-.16,3.48-.71.54-.26,1.04-.59,1.49-.99.44-.39.84-.8,1.21-1.25.14-.18.3-.34.47-.49.17-.15.25-.21.25-.44,0-.16-.07-.31-.2-.4l-3.78-2.54c-.08-.06-.17-.08-.26-.08h0Z"/>
    <path class="cls-6" d="M54.46,45.91c.99,0,2.1.19,3.43.6.76.21,1.63.53,2.4.8l.19.07c.17.06.33.12.48.17.2.07.38.14.52.19,3.6,1.2,4.78,3.44,5.82,5.42l.02.05c.5.95.93,1.77,1.58,2.28.41.34.92.34,1.09.34.29,0,.6-.04.91-.08.31-.05.63-.07.95-.08h.03s.03,0,.03,0c1.11-.11,2.25-.19,3.35-.26.45-.03.9-.06,1.33-.1l.24,3.39-4.3.32c-.66.05-1.24.09-1.8.09-1.15,0-2.22-.17-3.69-.95h0c-1.08-.79-1.97-1.85-2.57-3.05l-.94-1.9-.86,1.94-2.81,6.29-.28.62.47.49c.77.79,1.6,1.54,2.44,2.22,2.34,1.95,4.02,3.35,3.45,7.34-.06.36-.14.72-.24,1.08-.1.39-.22.73-.33,1.08-.63,1.8-1.19,3.68-1.74,5.5-.23.77-.46,1.54-.71,2.33l-3.54.24c.3-.98.6-1.96.9-2.93.62-2.01,1.25-4.09,1.85-6.13.15-.42.27-.86.38-1.3.1-.45.12-.91.06-1.37v-.05c-.02-.51-.18-1.01-.47-1.43l-.09-.13-.12-.09c-1.15-.9-2.4-1.7-3.71-2.36-1.46-.81-2.84-1.57-3.9-2.65-.65-.63-1.06-1.47-1.15-2.34-.07-.93.12-1.85.57-2.71l3.64-7.74.5-1.07-1.14-.32-.32-.09c-.68-.25-1.39-.38-2.11-.38h-.16s-.06,0-.06,0h-.06c-.99.15-1.81.69-2.69,1.25l-.14.09c-.27.17-.55.35-.85.53-.23.11-.46.25-.66.37-.09.05-.17.1-.26.15l-3.04,1.75-1.67-2.94c.38-.21.77-.43,1.16-.64.93-.51,1.89-1.04,2.75-1.59,1.72-1.07,2.85-1.74,4.19-2.07.55-.14,1.1-.2,1.68-.2M54.46,44.91c-.69,0-1.32.08-1.92.23-1.53.38-2.86,1.19-4.48,2.19-1.35.87-2.96,1.68-4.35,2.48,0,0,0,0,0,0-.21.12-.29.39-.16.61l2.22,3.9c.08.15.23.23.39.23.07,0,.15-.02.22-.06l3.52-2.02c.28-.16.6-.37.89-.51.38-.22.72-.45,1.06-.66.81-.52,1.53-.98,2.29-1.09.04,0,.09,0,.13,0,.62,0,1.23.11,1.8.33l.36.1-3.64,7.74c-.52.99-.75,2.1-.66,3.21.13,1.13.64,2.18,1.45,2.98,1.15,1.18,2.63,1.99,4.15,2.83,1.25.63,2.44,1.39,3.54,2.25.18.27.28.58.3.9v.1c.06.36.05.72-.03,1.07-.1.41-.21.82-.35,1.21-.97,3.29-2,6.58-2.99,9.87-.07.24.07.49.3.56.03,0,.05,0,.08,0s.05,0,.08,0l4.72-.32c.19-.01.35-.14.4-.33.84-2.68,1.62-5.5,2.55-8.15.13-.38.24-.74.35-1.15.11-.39.2-.79.26-1.19.66-4.54-1.37-6.24-3.8-8.27-.83-.67-1.62-1.39-2.37-2.15l2.81-6.29c.68,1.37,1.68,2.55,2.92,3.44l.05.03c1.62.87,2.87,1.09,4.19,1.09.6,0,1.21-.04,1.88-.09l4.86-.36c.24-.02.41-.22.4-.46l-.32-4.52c-.02-.23-.21-.41-.44-.41-.01,0-.02,0-.03,0-1.76.14-3.51.24-5.26.4-.36,0-.71.04-1.07.09-.28.04-.55.07-.76.07-.2,0-.35-.03-.45-.11-.51-.4-.9-1.16-1.35-2.02-1.05-2-2.4-4.58-6.39-5.91-.26-.08-.58-.21-.99-.35-.81-.29-1.79-.65-2.65-.89-1.45-.44-2.64-.64-3.7-.64h0Z"/>
  </g>
</svg>