<?xml version="1.0" encoding="iso-8859-1"?>

<svg fill="#FFFFFF" height="800px" width="800px" version="1.1" id="Layer_1" xmlns="http://www.w3.org/2000/svg" xmlns:xlink="http://www.w3.org/1999/xlink" 
	 viewBox="0 0 512 512" xml:space="preserve">
<g>
	<g>
		<path d="M424.055,220.891l23.239,23.24L512,179.423l-64.706-64.703l-64.705,64.703l15.548,15.549
			c-13.775,4.319-28.65,6.396-45.495,6.396c-17.695,0-32.876-2.178-47.034-6.849l15.095-15.096L256,114.72l-20.508,20.508
			l-73.4-73.331c2.302-5.427,3.516-11.312,3.516-17.386c0-11.892-4.631-23.072-13.04-31.482
			C135.209-4.328,106.964-4.329,89.604,13.03c-17.358,17.359-17.358,45.605,0,62.963c8.409,8.41,19.59,13.042,31.482,13.042
			c6.078,0,11.966-1.217,17.398-3.523l39.384,39.346c-5.979-0.509-12.134-0.769-18.512-0.769c-26.884,0-49.893,4.452-71.412,13.871
			l-23.239-23.238L0,179.423l64.706,64.708l64.706-64.708l-15.548-15.548c13.776-4.32,28.651-6.397,45.495-6.397
			c17.695,0,32.877,2.178,47.035,6.849l-15.097,15.096L256,244.132l20.508-20.509l73.4,73.331
			c-2.302,5.427-3.516,11.313-3.516,17.386c0,11.892,4.63,23.072,13.04,31.481c8.68,8.68,20.08,13.019,31.481,13.019
			c11.4,0,22.801-4.34,31.48-13.019c8.41-8.409,13.042-19.591,13.042-31.481c0-11.893-4.631-23.073-13.042-31.482
			c-8.409-8.409-19.59-13.039-31.48-13.039c-6.078,0-11.967,1.217-17.398,3.522l-39.387-39.349c5.98,0.509,12.138,0.77,18.516,0.77
			C379.529,234.759,402.538,230.308,424.055,220.891z"/>
	</g>
</g>
<g>
	<g>
		<path d="M233.739,261.918v91.027c8.494,5.487,14.121,15.032,14.121,25.896c0,17.02-13.797,30.817-30.817,30.817
			c-17.02,0-30.817-13.797-30.817-30.817c0-10.864,5.628-20.408,14.121-25.896v-91.027l-90.581,122.736l32.712,60.552h149.128v0
			l32.712-60.552L233.739,261.918z"/>
	</g>
</g>
<g>
	<g>
		<polygon points="290.695,478.598 143.392,478.598 129.827,511.989 217.043,511.989 304.26,511.989 		"/>
	</g>
</g>
</svg>